<?xml version="1.0" encoding="UTF-8"?>
<svg xmlns="http://www.w3.org/2000/svg" viewBox="0 0 360 220" font-family="serif" font-size="13">
  <title>Sistema SDOF bajo aceleración del suelo</title>
  <line x1="40" y1="180" x2="320" y2="180" stroke="#222" stroke-width="2"/>
  <g stroke="#222" stroke-width="1">
    <line x1="50" y1="180" x2="40" y2="195"/>
    <line x1="80" y1="180" x2="70" y2="195"/>
    <line x1="110" y1="180" x2="100" y2="195"/>
    <line x1="140" y1="180" x2="130" y2="195"/>
    <line x1="170" y1="180" x2="160" y2="195"/>
    <line x1="200" y1="180" x2="190" y2="195"/>
    <line x1="230" y1="180" x2="220" y2="195"/>
    <line x1="260" y1="180" x2="250" y2="195"/>
    <line x1="290" y1="180" x2="280" y2="195"/>
    <line x1="320" y1="180" x2="310" y2="195"/>
  </g>
  <rect x="140" y="50" width="80" height="50" fill="#f6f3ec" stroke="#222" stroke-width="2"/>
  <text x="180" y="80" text-anchor="middle" font-style="italic">m</text>
  <g stroke="#222" stroke-width="1.5" fill="none">
    <polyline points="160,180 160,160 152,156 168,148 152,140 168,132 152,124 168,116 152,108 168,104 160,100"/>
  </g>
  <text x="135" y="146" text-anchor="end" font-style="italic">k</text>
  <g stroke="#222" stroke-width="1.5" fill="none">
    <line x1="200" y1="180" x2="200" y2="160"/>
    <rect x="192" y="125" width="16" height="30" fill="none"/>
    <line x1="192" y1="138" x2="208" y2="138"/>
    <line x1="200" y1="125" x2="200" y2="100"/>
  </g>
  <text x="223" y="146" font-style="italic">c</text>
  <g stroke="#222" stroke-width="1" fill="#222">
    <line x1="180" y1="30" x2="180" y2="48"/>
    <polygon points="180,48 176,42 184,42"/>
  </g>
  <text x="186" y="28" font-style="italic">u(t)</text>
  <g stroke="#222" stroke-width="1" fill="#222">
    <line x1="330" y1="180" x2="330" y2="200"/>
    <polygon points="330,200 326,194 334,194"/>
  </g>
  <text x="340" y="205" font-style="italic">ü g(t)</text>
  <text x="180" y="215" text-anchor="middle">Sistema masa-resorte-amortiguador (SDOF)</text>
</svg>
